<?xml version="1.0" encoding="utf-8"?>
<!-- Generator: Adobe Illustrator 21.0.2, SVG Export Plug-In . SVG Version: 6.00 Build 0)  -->
<svg version="1.1" xmlns="http://www.w3.org/2000/svg" xmlns:xlink="http://www.w3.org/1999/xlink" x="0px" y="0px"
	 viewBox="0 0 577 102.9" style="enable-background:new 0 0 577 102.9;" xml:space="preserve">
<style type="text/css">
	.st0{display:none;}
	.st1{display:inline;}
	.st2{fill:#33CD99;}
	.st3{fill:#FFFFFF;}
	.st4{fill:#FFFFFF;}
</style>
<g id="All_glyphs" class="st0">
	<g class="st1">
		<g>
			<path class="st2" d="M14.2,41.7L33,22.9L18.8,8.8c0,0-5.4-1.1-12.6,6.1S0.1,27.5,0.1,27.5L14.2,41.7z"/>
			<path class="st2" d="M39,66.5l13.7-13.7l5.1-5.1l0,0l0,0L78,27.5c0,0,1.1-5.4-6.1-12.6c-7.3-7.2-12.7-6.1-12.7-6.1L33.9,34
				L5,62.9L0,86.7l23.8-5.1L39,66.5L39,66.5L39,66.5z M22.4,78.8l-8.1,1.7c-0.8-1.5-1.7-2.9-3.5-4.7c-1.7-1.7-3.2-2.7-4.7-3.5
				l1.8-8.1l2.3-2.3c0,0,4.4,0.1,9.4,5.1s5.1,9.4,5.1,9.4L22.4,78.8z"/>
			<path class="st2" d="M72.9,62.9l-9.5-9.5L44.7,72.2l9.5,9.5l23.8,5L72.9,62.9z M67.2,75.9c-1.7,1.7-2.7,3.2-3.5,4.7l-8.1-1.8
				l-2.3-2.3c0,0,0.1-4.4,5.1-9.4s9.4-5.1,9.4-5.1l2.3,2.3l1.7,8.1C70.4,73.2,68.9,74.1,67.2,75.9z"/>
		</g>
		<g>
			<path class="st3" d="M124.9,20.1c0-0.8,0.7-1.5,1.5-1.5h2L162,54.3h0.1V21c0-0.8,0.6-1.5,1.5-1.5h7.4c0.8,0,1.5,0.7,1.5,1.5v54.2
				c0,0.8-0.7,1.5-1.5,1.5h-1.9l-33.7-37h-0.1v34.7c0,0.8-0.6,1.5-1.5,1.5h-7.3c-0.8,0-1.5-0.7-1.5-1.5L124.9,20.1L124.9,20.1z"/>
			<path class="st3" d="M212.2,18.7c16.1,0,29,13,29,29.1s-12.9,28.9-29,28.9s-28.9-12.8-28.9-28.9C183.2,31.7,196,18.7,212.2,18.7z
				 M212.2,66.2c10.2,0,18.5-8.3,18.5-18.5s-8.4-18.6-18.5-18.6c-10.2,0-18.5,8.5-18.5,18.6S202,66.2,212.2,66.2z"/>
			<path class="st3" d="M258.8,29.2h-12.3c-0.9,0-1.5-0.7-1.5-1.5v-6.6c0-0.8,0.6-1.5,1.5-1.5h35.2c0.9,0,1.5,0.7,1.5,1.5v6.6
				c0,0.8-0.6,1.5-1.5,1.5h-12.3v45.2c0,0.8-0.7,1.5-1.5,1.5h-7.5c-0.8,0-1.5-0.7-1.5-1.5V29.2H258.8z"/>
			<path class="st3" d="M291.6,21c0-0.8,0.6-1.5,1.5-1.5h32.8c0.9,0,1.5,0.7,1.5,1.5v6.6c0,0.8-0.6,1.5-1.5,1.5H302v13.2h20
				c0.8,0,1.5,0.7,1.5,1.5v6.7c0,0.9-0.7,1.5-1.5,1.5h-19.9v14.1H326c0.9,0,1.5,0.7,1.5,1.5v6.6c0,0.8-0.6,1.5-1.5,1.5h-32.8
				c-0.9,0-1.5-0.7-1.5-1.5V21H291.6z"/>
			<path class="st3" d="M339,20.1c0-0.8,0.7-1.5,1.5-1.5h2L376,54.2h0.1V21c0-0.8,0.6-1.5,1.5-1.5h7.4c0.8,0,1.5,0.7,1.5,1.5v54.2
				c0,0.8-0.7,1.5-1.5,1.5h-1.9l-33.7-37h-0.1v34.7c0,0.8-0.6,1.5-1.5,1.5h-7.3c-0.8,0-1.5-0.7-1.5-1.5V20.1z"/>
			<path class="st3" d="M426.3,18.7c16.1,0,29,13,29,29.1s-12.9,28.9-29,28.9s-28.9-12.8-28.9-28.9
				C397.3,31.7,410.2,18.7,426.3,18.7z M426.3,66.2c10.2,0,18.5-8.3,18.5-18.5s-8.4-18.6-18.5-18.6c-10.2,0-18.5,8.5-18.5,18.6
				S416.1,66.2,426.3,66.2z"/>
			<path class="st3" d="M472.9,29.2h-12.3c-0.9,0-1.5-0.7-1.5-1.5v-6.6c0-0.8,0.6-1.5,1.5-1.5h35.2c0.9,0,1.5,0.7,1.5,1.5v6.6
				c0,0.8-0.6,1.5-1.5,1.5h-12.3v45.2c0,0.8-0.7,1.5-1.5,1.5h-7.5c-0.8,0-1.5-0.7-1.5-1.5V29.2H472.9z"/>
			<path class="st3" d="M505.7,21c0-0.8,0.6-1.5,1.5-1.5H540c0.9,0,1.5,0.7,1.5,1.5v6.6c0,0.8-0.6,1.5-1.5,1.5h-23.9v13.2H536
				c0.8,0,1.5,0.7,1.5,1.5v6.7c0,0.9-0.7,1.5-1.5,1.5h-19.9v14.1H540c0.9,0,1.5,0.7,1.5,1.5v6.6c0,0.8-0.6,1.5-1.5,1.5h-32.8
				c-0.9,0-1.5-0.7-1.5-1.5V21z"/>
		</g>
	</g>
</g>
<g id="All_glyphs_copy" class="st0">
	<g class="st1">
		<g>
			<path class="st2" d="M14.2,41.7L33,22.9L18.8,8.8c0,0-5.4-1.1-12.6,6.1S0.1,27.5,0.1,27.5L14.2,41.7z"/>
			<path class="st2" d="M39,66.5l13.7-13.7l5.1-5.1l0,0l0,0L78,27.5c0,0,1.1-5.4-6.1-12.6c-7.3-7.2-12.7-6.1-12.7-6.1L33.9,34
				L5,62.9L0,86.7l23.8-5.1L39,66.5L39,66.5L39,66.5z M22.4,78.8l-8.1,1.7c-0.8-1.5-1.7-2.9-3.5-4.7c-1.7-1.7-3.2-2.7-4.7-3.5
				l1.8-8.1l2.3-2.3c0,0,4.4,0.1,9.4,5.1s5.1,9.4,5.1,9.4L22.4,78.8z"/>
			<path class="st2" d="M72.9,62.9l-9.5-9.5L44.7,72.2l9.5,9.5l23.8,5L72.9,62.9z M67.2,75.9c-1.7,1.7-2.7,3.2-3.5,4.7l-8.1-1.8
				l-2.3-2.3c0,0,0.1-4.4,5.1-9.4s9.4-5.1,9.4-5.1l2.3,2.3l1.7,8.1C70.4,73.2,68.9,74.1,67.2,75.9z"/>
		</g>
		<g>
			<path class="st3" d="M124.9,20.1c0-0.8,0.7-1.5,1.5-1.5h2L162,54.3h0.1V21c0-0.8,0.6-1.5,1.5-1.5h7.4c0.8,0,1.5,0.7,1.5,1.5v54.2
				c0,0.8-0.7,1.5-1.5,1.5h-1.9l-33.7-37h-0.1v34.7c0,0.8-0.6,1.5-1.5,1.5h-7.3c-0.8,0-1.5-0.7-1.5-1.5L124.9,20.1L124.9,20.1z"/>
			<path class="st3" d="M212.2,18.7c16.1,0,29,13,29,29.1s-12.9,28.9-29,28.9s-28.9-12.8-28.9-28.9C183.2,31.7,196,18.7,212.2,18.7z
				 M212.2,66.2c10.2,0,18.5-8.3,18.5-18.5s-8.4-18.6-18.5-18.6c-10.2,0-18.5,8.5-18.5,18.6S202,66.2,212.2,66.2z"/>
			<path class="st3" d="M258.8,29.2h-12.3c-0.9,0-1.5-0.7-1.5-1.5v-6.6c0-0.8,0.6-1.5,1.5-1.5h35.2c0.9,0,1.5,0.7,1.5,1.5v6.6
				c0,0.8-0.6,1.5-1.5,1.5h-12.3v45.2c0,0.8-0.7,1.5-1.5,1.5h-7.5c-0.8,0-1.5-0.7-1.5-1.5V29.2H258.8z"/>
			<path class="st3" d="M291.6,21c0-0.8,0.6-1.5,1.5-1.5h32.8c0.9,0,1.5,0.7,1.5,1.5v6.6c0,0.8-0.6,1.5-1.5,1.5H302v13.2h20
				c0.8,0,1.5,0.7,1.5,1.5v6.7c0,0.9-0.7,1.5-1.5,1.5h-19.9v14.1H326c0.9,0,1.5,0.7,1.5,1.5v6.6c0,0.8-0.6,1.5-1.5,1.5h-32.8
				c-0.9,0-1.5-0.7-1.5-1.5V21H291.6z"/>
			<path class="st3" d="M339,20.1c0-0.8,0.7-1.5,1.5-1.5h2L376,54.2h0.1V21c0-0.8,0.6-1.5,1.5-1.5h7.4c0.8,0,1.5,0.7,1.5,1.5v54.2
				c0,0.8-0.7,1.5-1.5,1.5h-1.9l-33.7-37h-0.1v34.7c0,0.8-0.6,1.5-1.5,1.5h-7.3c-0.8,0-1.5-0.7-1.5-1.5V20.1z"/>
			<path class="st3" d="M426.3,18.7c16.1,0,29,13,29,29.1s-12.9,28.9-29,28.9s-28.9-12.8-28.9-28.9
				C397.3,31.7,410.2,18.7,426.3,18.7z M426.3,66.2c10.2,0,18.5-8.3,18.5-18.5s-8.4-18.6-18.5-18.6c-10.2,0-18.5,8.5-18.5,18.6
				S416.1,66.2,426.3,66.2z"/>
			<path class="st3" d="M472.9,29.2h-12.3c-0.9,0-1.5-0.7-1.5-1.5v-6.6c0-0.8,0.6-1.5,1.5-1.5h35.2c0.9,0,1.5,0.7,1.5,1.5v6.6
				c0,0.8-0.6,1.5-1.5,1.5h-12.3v45.2c0,0.8-0.7,1.5-1.5,1.5h-7.5c-0.8,0-1.5-0.7-1.5-1.5V29.2H472.9z"/>
			<path class="st3" d="M505.7,21c0-0.8,0.6-1.5,1.5-1.5H540c0.9,0,1.5,0.7,1.5,1.5v6.6c0,0.8-0.6,1.5-1.5,1.5h-23.9v13.2H536
				c0.8,0,1.5,0.7,1.5,1.5v6.7c0,0.9-0.7,1.5-1.5,1.5h-19.9v14.1H540c0.9,0,1.5,0.7,1.5,1.5v6.6c0,0.8-0.6,1.5-1.5,1.5h-32.8
				c-0.9,0-1.5-0.7-1.5-1.5V21z"/>
		</g>
	</g>
</g>
<g id="Layer_3">
	<g>
		<polygon class="st4" points="184.6,69.9 165.1,26.3 155.2,26.3 155.2,81.9 164.3,81.9 164.3,43.8 181.4,81.9 187.7,81.9
			204.7,43.8 204.7,81.9 213.8,81.9 213.8,26.3 204,26.3 		"/>
		<path class="st4" d="M245.3,37.1c-6.4,0-11.7,2.1-16,6.3c-4.3,4.2-6.4,9.7-6.4,16.5s2.1,12.3,6.2,16.5c4.2,4.2,9.5,6.3,15.9,6.3
			c6.4,0,11.8-2.1,16.2-6.3s6.6-9.7,6.6-16.5c0-6.8-2.1-12.3-6.4-16.4C257,39.2,251.7,37.1,245.3,37.1z M254.4,70.9
			c-2.7,2.7-5.8,4-9.5,4c-3.7,0-6.7-1.3-9.2-4c-2.5-2.6-3.7-6.3-3.7-11.1c0-4.8,1.3-8.5,3.8-11.1c2.5-2.6,5.6-4,9.3-4
			c3.7,0,6.8,1.3,9.4,4c2.6,2.6,3.9,6.3,3.9,11.1C258.4,64.6,257.1,68.3,254.4,70.9z"/>
		<path class="st4" d="M301.3,37.1c-3.5,0-6.5,0.8-9.2,2.4c-2.6,1.6-4.7,3.6-6.2,6.2v-23h-9.1v59.2h9.1v-8.2
			c1.5,2.7,3.6,4.9,6.2,6.5c2.6,1.6,5.7,2.4,9.1,2.4c5.9,0,10.8-2.1,14.8-6.4c4-4.3,6-9.8,6-16.5c0-6.7-2-12.1-5.9-16.3
			C312.1,39.2,307.2,37.1,301.3,37.1z M308.7,70.6c-2.7,2.7-5.8,4.1-9.4,4.1c-3.6,0-6.8-1.3-9.4-4c-2.6-2.7-4-6.3-4-10.8
			c0-4.5,1.3-8.1,4-10.8c2.6-2.7,5.8-4,9.4-4c3.7,0,6.8,1.3,9.4,3.9c2.6,2.6,4,6.2,4,10.7C312.7,64.2,311.4,67.8,308.7,70.6z"/>
		<path class="st4" d="M335.6,20.3c-1.6,0-3,0.6-4.1,1.7s-1.7,2.5-1.7,4.2c0,1.7,0.6,3,1.7,4.2s2.5,1.7,4.1,1.7c1.6,0,3-0.6,4.1-1.7
			c1.1-1.1,1.7-2.5,1.7-4.2c0-1.7-0.6-3-1.7-4.2C338.6,20.9,337.3,20.3,335.6,20.3z"/>
		<rect x="331" y="37.8" class="st4" width="9.1" height="44.1"/>
		<polygon class="st4" points="388.7,67.7 361.3,26.2 352.2,26.2 352.2,81.9 361.3,81.9 361.3,40.4 388.7,81.9 397.8,81.9
			397.8,26.2 388.7,26.2 		"/>
		<path class="st4" d="M429.4,37.1c-6.4,0-11.7,2.1-16,6.3c-4.3,4.2-6.4,9.7-6.4,16.5s2.1,12.3,6.2,16.5c4.2,4.2,9.5,6.3,15.9,6.3
			c6.4,0,11.8-2.1,16.2-6.3c4.4-4.2,6.6-9.7,6.6-16.5c0-6.8-2.1-12.3-6.4-16.4C441.1,39.2,435.8,37.1,429.4,37.1z M438.5,70.9
			c-2.7,2.7-5.8,4-9.5,4c-3.7,0-6.7-1.3-9.2-4c-2.5-2.6-3.7-6.3-3.7-11.1c0-4.8,1.3-8.5,3.8-11.1c2.5-2.6,5.6-4,9.3-4
			c3.7,0,6.8,1.3,9.4,4c2.6,2.6,3.9,6.3,3.9,11.1C442.5,64.6,441.2,68.3,438.5,70.9z"/>
		<path class="st4" d="M471.5,26.9h-9.2v11h-5.2v7.4h5.2v24.4c0,8.2,4.2,12.2,12.7,12.2h7.2v-7.6h-5.6c-1.9,0-3.2-0.4-4-1.1
			c-0.8-0.7-1.2-1.9-1.2-3.6V45.3h10.7v-7.4h-10.7V26.9z"/>
		<path class="st4" d="M531,58.6c0-6.4-2-11.6-6-15.6c-4-4-9.2-6-15.6-6c-6.4,0-11.7,2.1-15.7,6.2c-4.1,4.1-6.1,9.6-6.1,16.5
			s2,12.4,6,16.6c4,4.2,9.2,6.2,15.6,6.2c5.2,0,9.5-1.3,13-3.9c3.5-2.6,5.9-5.9,7.3-10h-9.8c-2,4.1-5.5,6.2-10.5,6.2
			c-3.4,0-6.3-1.1-8.5-3.2c-2.3-2.2-3.5-5.1-3.7-8.8h33.8C530.9,61.6,531,60.2,531,58.6z M497,56.7c0.3-3.6,1.6-6.5,3.9-8.7
			c2.3-2.2,5.1-3.2,8.4-3.2c3.4,0,6.2,1.1,8.6,3.2c2.3,2.2,3.5,5.1,3.6,8.7H497z"/>
		<path class="st4" d="M107.5,20.8h-2.8V18h-2.8v2.8h-8.4V18h-2.8v2.8h-8.4V18h-2.8v2.8h-8.4V18h-2.8v2.8h-2.8
			c-3.1,0-5.6,2.5-5.6,5.6v58.7c0,3.1,2.5,5.6,5.6,5.6h42c3.1,0,5.6-2.5,5.6-5.6V26.4C113.1,23.3,110.6,20.8,107.5,20.8z"/>
	</g>
</g>
</svg>
